<mxfile host="app.diagrams.net" modified="2021-08-30T15:24:53.914Z" agent="5.0 (Macintosh; Intel Mac OS X 10_15_7) AppleWebKit/537.36 (KHTML, like Gecko) Chrome/92.0.4515.131 Safari/537.36" etag="-XPycODOMVI2wp6CAsWj" version="15.0.3" type="github">
  <diagram id="XhowUh0J7IBayj1MALWZ" name="Page-1">
    <mxGraphModel dx="946" dy="557" grid="1" gridSize="10" guides="1" tooltips="1" connect="1" arrows="1" fold="1" page="1" pageScale="1" pageWidth="827" pageHeight="1169" math="0" shadow="0">
      <root>
        <mxCell id="0" />
        <mxCell id="1" parent="0" />
        <mxCell id="Duppyn6pnr1vhjbcsQ57-2" value="&lt;font style=&quot;vertical-align: inherit; font-size: 18px;&quot;&gt;&lt;font style=&quot;vertical-align: inherit; font-size: 18px;&quot;&gt;終了&lt;/font&gt;&lt;/font&gt;" style="ellipse;whiteSpace=wrap;html=1;fontSize=18;" vertex="1" parent="1">
          <mxGeometry x="340" y="450" width="120" height="80" as="geometry" />
        </mxCell>
        <mxCell id="Duppyn6pnr1vhjbcsQ57-5" value="" style="edgeStyle=orthogonalEdgeStyle;rounded=0;orthogonalLoop=1;jettySize=auto;html=1;fontSize=18;" edge="1" parent="1" source="Duppyn6pnr1vhjbcsQ57-3" target="Duppyn6pnr1vhjbcsQ57-4">
          <mxGeometry relative="1" as="geometry" />
        </mxCell>
        <mxCell id="Duppyn6pnr1vhjbcsQ57-3" value="&lt;font style=&quot;vertical-align: inherit&quot;&gt;&lt;font style=&quot;vertical-align: inherit ; font-size: 15px&quot;&gt;開始&lt;/font&gt;&lt;/font&gt;" style="ellipse;whiteSpace=wrap;html=1;" vertex="1" parent="1">
          <mxGeometry x="330" y="30" width="120" height="80" as="geometry" />
        </mxCell>
        <mxCell id="Duppyn6pnr1vhjbcsQ57-8" value="" style="edgeStyle=orthogonalEdgeStyle;rounded=0;orthogonalLoop=1;jettySize=auto;html=1;fontSize=18;" edge="1" parent="1" source="Duppyn6pnr1vhjbcsQ57-4" target="Duppyn6pnr1vhjbcsQ57-6">
          <mxGeometry relative="1" as="geometry" />
        </mxCell>
        <mxCell id="Duppyn6pnr1vhjbcsQ57-11" value="" style="edgeStyle=orthogonalEdgeStyle;rounded=0;orthogonalLoop=1;jettySize=auto;html=1;fontSize=18;" edge="1" parent="1" source="Duppyn6pnr1vhjbcsQ57-4" target="Duppyn6pnr1vhjbcsQ57-7">
          <mxGeometry relative="1" as="geometry" />
        </mxCell>
        <mxCell id="Duppyn6pnr1vhjbcsQ57-4" value="a&amp;gt;b" style="rhombus;whiteSpace=wrap;html=1;fontSize=18;" vertex="1" parent="1">
          <mxGeometry x="340" y="160" width="100" height="60" as="geometry" />
        </mxCell>
        <mxCell id="Duppyn6pnr1vhjbcsQ57-17" style="edgeStyle=orthogonalEdgeStyle;rounded=0;orthogonalLoop=1;jettySize=auto;html=1;entryX=0;entryY=0.5;entryDx=0;entryDy=0;fontSize=18;" edge="1" parent="1" source="Duppyn6pnr1vhjbcsQ57-6" target="Duppyn6pnr1vhjbcsQ57-2">
          <mxGeometry relative="1" as="geometry" />
        </mxCell>
        <mxCell id="Duppyn6pnr1vhjbcsQ57-6" value="aを返却" style="rounded=0;whiteSpace=wrap;html=1;fontSize=18;" vertex="1" parent="1">
          <mxGeometry x="130" y="270" width="120" height="60" as="geometry" />
        </mxCell>
        <mxCell id="Duppyn6pnr1vhjbcsQ57-15" style="edgeStyle=orthogonalEdgeStyle;rounded=0;orthogonalLoop=1;jettySize=auto;html=1;entryX=1;entryY=0.5;entryDx=0;entryDy=0;fontSize=18;" edge="1" parent="1" source="Duppyn6pnr1vhjbcsQ57-7" target="Duppyn6pnr1vhjbcsQ57-2">
          <mxGeometry relative="1" as="geometry" />
        </mxCell>
        <mxCell id="Duppyn6pnr1vhjbcsQ57-7" value="bを返却" style="rounded=0;whiteSpace=wrap;html=1;fontSize=18;" vertex="1" parent="1">
          <mxGeometry x="540" y="290" width="120" height="60" as="geometry" />
        </mxCell>
      </root>
    </mxGraphModel>
  </diagram>
</mxfile>
